USFL
nRows=129
nColumns=2
inDegrees=yes
endheader
time	med_gas_r	
2.06237	 30.075940	
2.12486	 30.107184	
2.18736	 30.155943	
2.24986	 30.112593	
2.31235	 30.069659	
2.37485	 30.068855	
2.43734	 30.076854	
2.49984	 30.041114	
2.56234	 30.026726	
2.62483	 30.056468	
2.68733	 30.111048	
2.74982	 30.071600	
2.81232	 30.100128	
2.87482	 30.118109	
2.93731	 30.238114	
2.99981	 30.236600	
3.0623	 30.289541	
3.1248	 30.339340	
3.1873	 30.242552	
3.24979	 30.180640	
3.31229	 30.203259	
3.37478	 30.204539	
3.43728	 30.256820	
3.49978	 30.252442	
3.56227	 30.272515	
3.62477	 30.316139	
3.68726	 30.356945	
3.74976	 30.360663	
3.81226	 30.515850	
3.87475	 30.534258	
3.93725	 30.523558	
3.99974	 30.499625	
4.06224	 30.449971	
4.12474	 30.489375	
4.18723	 30.477640	
4.24973	 30.421721	
4.31222	 30.382435	
4.37472	 30.305082	
4.43722	 27.016216	
4.49971	 26.919951	
4.56221	 26.813424	
4.6247	 26.736381	
4.6872	 26.656237	
4.7497	 26.646298	
4.81219	 26.624651	
4.87469	 26.544141	
4.93718	 26.445622	
4.99968	 26.409293	
5.06218	 26.398672	
5.12467	 26.335043	
5.18717	 26.326709	
5.24966	 26.306895	
5.31216	 26.297262	
5.37466	 26.322056	
5.43715	 26.324202	
5.49965	 26.281511	
5.56214	 26.250296	
5.62464	 26.247144	
5.68714	 26.255787	
5.74963	 26.205124	
5.81213	 26.229004	
5.87462	 26.256365	
5.93712	 26.244083	
5.99962	 26.208641	
6.06211	 26.153444	
6.12461	 26.095744	
6.1871	 26.123470	
6.2496	 26.072480	
6.3121	 26.030430	
6.37459	 26.009195	
6.43709	 25.883365	
6.49958	 25.811692	
6.56208	 25.753150	
6.62458	 25.683072	
6.68707	 25.636068	
6.74957	 25.672990	
6.81206	 25.619284	
6.87456	 25.599547	
6.93706	 25.610088	
6.99955	 25.584767	
7.06205	 25.598377	
7.12454	 25.557350	
7.18704	 25.493261	
7.24954	 25.461949	
7.31203	 25.482433	
7.37453	 25.469110	
7.43702	 25.439245	
7.49952	 25.458410	
7.56202	 25.466548	
7.62451	 25.416213	
7.68701	 25.463744	
7.7495	 25.455504	
7.812	 25.329779	
7.8745	 25.394256	
7.93699	 25.414208	
7.99949	 25.393547	
8.06198	 25.507455	
8.12448	 25.351465	
8.18698	 25.318749	
8.24947	 25.551557	
8.31197	 25.556300	
8.37446	 25.532562	
8.43696	 25.639516	
8.49946	 25.643435	
8.56195	 25.636396	
8.62445	 25.602579	
8.68694	 25.586670	
8.74944	 25.619308	
8.81194	 25.590520	
8.87443	 25.590690	
8.93693	 25.572750	
8.99942	 25.608231	
9.06192	 25.659448	
9.12442	 25.712003	
9.18691	 25.806218	
9.24941	 25.983167	
9.3119	 26.105907	
9.3744	 26.201819	
9.4369	 26.310841	
9.49939	 26.318752	
9.56189	 26.496337	
9.62438	 26.492179	
9.68688	 26.534693	
9.74938	 26.665469	
9.81187	 26.851927	
9.87437	 26.971639	
9.93686	 27.105903	
9.99936	 27.171542	
10.0619	 27.175992	
